<svg width="41" height="46" viewBox="0 0 41 46" fill="none" xmlns="http://www.w3.org/2000/svg">
<circle cx="18" cy="23" r="18" fill="white"/>
<path d="M12.679 31V29.0909L18.5852 22.9716C19.2159 22.3068 19.7358 21.7244 20.1449 21.2244C20.5597 20.7187 20.8693 20.2386 21.0739 19.7841C21.2784 19.3295 21.3807 18.8466 21.3807 18.3352C21.3807 17.7557 21.2443 17.2557 20.9716 16.8352C20.6989 16.4091 20.3267 16.0824 19.8551 15.8551C19.3835 15.6222 18.8523 15.5057 18.2614 15.5057C17.6364 15.5057 17.0909 15.6335 16.625 15.8892C16.1591 16.1449 15.8011 16.5057 15.5511 16.9716C15.3011 17.4375 15.1761 17.983 15.1761 18.608H12.6619C12.6619 17.5455 12.9063 16.6165 13.3949 15.821C13.8835 15.0256 14.554 14.4091 15.4062 13.9716C16.2585 13.5284 17.2273 13.3068 18.3125 13.3068C19.4091 13.3068 20.375 13.5256 21.2102 13.9631C22.0511 14.3949 22.7074 14.9858 23.179 15.7358C23.6506 16.4801 23.8864 17.321 23.8864 18.2585C23.8864 18.9062 23.7642 19.5398 23.5199 20.1591C23.2813 20.7784 22.8636 21.4687 22.267 22.2301C21.6705 22.9858 20.8409 23.9034 19.7784 24.983L16.3097 28.6136V28.7415H24.1676V31H12.679Z" fill="#75ADFA"/>
<path fill-rule="evenodd" clip-rule="evenodd" d="M18 46C18 46 18 46 18 46C30.7026 46 41 35.7026 41 23C41 10.2975 30.7026 1.52588e-05 18 1.52588e-05C18 1.52588e-05 18 1.52588e-05 18 1.52588e-05V3.00002C18 3.00002 18 3.00002 18 3.00002C29.0457 3.00002 38 11.9543 38 23C38 34.0457 29.0457 43 18 43C18 43 18 43 18 43V46Z" fill="#04FFB3"/>
</svg>
