<svg width="48" height="48" viewBox="0 0 48 48" fill="none" xmlns="http://www.w3.org/2000/svg">
<g clip-path="url(#clip0_446_727)">
<path d="M24 0C10.7353 0 0 10.7344 0 24C0 37.2647 10.7344 48 24 48C37.2647 48 48 37.2656 48 24C48 10.7353 37.2656 0 24 0ZM18.2893 34.1241C18.2893 34.1241 9.99975 25.8311 9.40388 25.2364C8.07834 23.9108 8.07834 21.7538 9.40388 20.4294C10.7328 19.1005 12.8819 19.1005 14.2108 20.4294L19.5774 25.7961C20.2448 26.4634 21.3277 26.4588 21.9894 25.7881L33.7729 13.8348C35.0973 12.4912 37.2611 12.4821 38.5968 13.8178C39.9121 15.1331 39.9201 17.2811 38.6138 18.6067C25.8175 31.5897 23.3874 34.1229 23.3874 34.1229C21.9826 35.5277 19.6953 35.5289 18.2893 34.1241Z" fill="#86BF88"/>
</g>
<defs>
<clipPath id="clip0_446_727">
<rect width="48" height="48" fill="white"/>
</clipPath>
</defs>
</svg>
