<svg width="26" height="26" viewBox="0 0 26 26" fill="none" xmlns="http://www.w3.org/2000/svg">
<path d="M1.62825 7.55869C1.66949 6.61756 2.07239 5.72867 2.75295 5.07732C3.43351 4.42597 4.33922 4.06243 5.28125 4.0625H20.7188C21.6608 4.06243 22.5665 4.42597 23.247 5.07732C23.9276 5.72867 24.3305 6.61756 24.3717 7.55869L23.1725 8.22494L13 13.702L2.8275 8.22494L1.62825 7.55869ZM1.625 9.41525V18.2812C1.625 19.2509 2.01021 20.1809 2.69589 20.8666C3.38157 21.5523 4.31155 21.9375 5.28125 21.9375H20.7188C21.6884 21.9375 22.6184 21.5523 23.3041 20.8666C23.9898 20.1809 24.375 19.2509 24.375 18.2812V9.41525L23.9476 9.65331L13.3851 15.3408C13.2668 15.4045 13.1344 15.4379 13 15.4379C12.8656 15.4379 12.7332 15.4045 12.6149 15.3408L2.04262 9.64762L1.625 9.41525Z" fill="#86BF88"/>
</svg>
