<svg width="73" height="73" viewBox="0 0 73 73" fill="none" xmlns="http://www.w3.org/2000/svg">
<circle cx="36.5" cy="36.5" r="34" fill="white" stroke="#2A5F4F" stroke-width="5"/>
<path fill-rule="evenodd" clip-rule="evenodd" d="M50.4166 20.75C51.9416 20.75 53.4042 21.3558 54.4825 22.4341C55.5608 23.5125 56.1666 24.975 56.1666 26.5V45.6667C56.1666 47.1917 55.5608 48.6542 54.4825 49.7325C53.4042 50.8109 51.9416 51.4167 50.4166 51.4167H28.0549L21.6666 56.2083C20.0873 57.3928 17.8333 56.2658 17.8333 54.2917V26.5C17.8333 24.975 18.4391 23.5125 19.5174 22.4341C20.5958 21.3558 22.0583 20.75 23.5833 20.75H50.4166ZM35.0833 38H29.3333C28.825 38 28.3375 38.2019 27.978 38.5614C27.6186 38.9208 27.4166 39.4083 27.4166 39.9167C27.4166 40.425 27.6186 40.9125 27.978 41.272C28.3375 41.6314 28.825 41.8333 29.3333 41.8333H35.0833C35.5916 41.8333 36.0792 41.6314 36.4386 41.272C36.798 40.9125 37 40.425 37 39.9167C37 39.4083 36.798 38.9208 36.4386 38.5614C36.0792 38.2019 35.5916 38 35.0833 38ZM44.6666 30.3333H29.3333C28.8448 30.3339 28.3749 30.5209 28.0197 30.8563C27.6645 31.1916 27.4507 31.65 27.4221 32.1377C27.3934 32.6254 27.5521 33.1056 27.8657 33.4802C28.1792 33.8548 28.624 34.0956 29.1091 34.1532L29.3333 34.1667H44.6666C45.1552 34.1661 45.625 33.9791 45.9803 33.6437C46.3355 33.3083 46.5493 32.85 46.5779 32.3623C46.6065 31.8746 46.4479 31.3944 46.1343 31.0198C45.8208 30.6452 45.376 30.4044 44.8909 30.3467L44.6666 30.3333Z" fill="#2A5F4F"/>
</svg>
