<svg width="125" height="125" viewBox="0 0 125 125" fill="none" xmlns="http://www.w3.org/2000/svg">
<g clip-path="url(#clip0_350_1037)">
<path d="M55.4033 97.6436C50.5303 102.147 43.7903 103.155 37.8123 100.277C35.6511 99.2361 33.8274 97.7991 32.3997 96.0779L24.2598 114.082C23.8894 114.901 24.303 115.518 24.4978 115.746C24.6926 115.973 25.2398 116.475 26.1055 116.235L32.0313 114.585C32.7066 114.397 33.3892 114.307 34.0623 114.307C36.9019 114.307 39.5745 115.914 40.8613 118.577L43.5376 124.116C43.9285 124.925 44.6616 125.006 44.9668 125C45.2661 124.996 46.0025 124.899 46.3726 124.08L59.3201 95.4409C57.8975 95.8503 56.5503 96.5835 55.4033 97.6436Z" fill="#86BF88"/>
<path d="M100.74 114.082L92.6001 96.0779C91.1724 97.7993 89.3486 99.2363 87.1875 100.277C81.2092 103.155 74.4695 102.147 69.5964 97.6436C68.4495 96.5835 67.1023 95.8503 65.6792 95.4409L78.6267 124.08C78.9971 124.899 79.7334 124.996 80.0325 125C80.3376 125.006 81.0708 124.925 81.4617 124.116L84.1379 118.577C85.4246 115.914 88.0974 114.307 90.937 114.307C91.6101 114.307 92.293 114.397 92.968 114.585L98.8938 116.235C99.7595 116.476 100.307 115.973 100.501 115.746C100.697 115.518 101.11 114.901 100.74 114.082Z" fill="#86BF88"/>
<path d="M107.134 50.7302C100.374 46.1013 98.2761 36.9106 102.359 29.8069C104.812 25.5366 103.535 21.3169 101.522 18.7917C99.5083 16.2673 95.6782 14.0835 90.9695 15.5251C83.1364 17.9243 74.6421 13.8345 71.6333 6.21338C69.8247 1.63232 65.7292 0 62.5 0C59.2707 0 55.1753 1.63232 53.3667 6.21362C50.3579 13.835 41.8642 17.9243 34.0305 15.5254C29.3213 14.084 25.4919 16.2673 23.478 18.792C21.4646 21.3171 20.1875 25.5364 22.6413 29.8071C26.7238 36.9106 24.6262 46.1016 17.8659 50.7305C13.802 53.5134 13.122 57.8691 13.8403 61.0176C14.5586 64.166 17.0615 67.7952 21.9304 68.5391C30.0295 69.7764 35.907 77.1465 35.3115 85.3181C34.9531 90.2305 37.9348 93.478 40.8442 94.8794C43.7539 96.2805 48.1518 96.5872 51.769 93.2441C54.7773 90.4641 58.6394 89.0735 62.4997 89.0735C66.3615 89.0735 70.2214 90.4634 73.2302 93.2441C76.8479 96.5874 81.2461 96.2808 84.1555 94.8794C87.0649 93.4783 90.0464 90.2307 89.6882 85.3184C89.0927 77.1467 94.9702 69.7766 103.069 68.5391C107.938 67.7952 110.441 64.1658 111.159 61.0176C111.878 57.8687 111.197 53.5129 107.134 50.7302ZM62.5 82.0125C44.7815 82.0125 30.3664 67.5974 30.3664 49.8789C30.3664 32.1604 44.7812 17.7451 62.5 17.7451C80.2187 17.7451 94.6335 32.1602 94.6335 49.8787C94.6333 67.5972 80.2185 82.0125 62.5 82.0125Z" fill="#86BF88"/>
<path d="M62.4998 23.7366C48.0847 23.7366 36.3574 35.4641 36.3574 49.8789C36.3574 64.2937 48.0845 76.0212 62.4998 76.0212C76.915 76.0212 88.6421 64.2937 88.6421 49.8789C88.6421 35.4641 76.9148 23.7366 62.4998 23.7366ZM75.897 47.3442L59.627 59.2278C59.1106 59.605 58.491 59.8044 57.8601 59.8044C57.6975 59.8044 57.5342 59.7913 57.3716 59.7644C56.5784 59.6333 55.8709 59.1887 55.4084 58.5305L50.5417 51.6013C49.5908 50.2471 49.9177 48.3787 51.2715 47.4277C52.6255 46.4768 54.4937 46.8035 55.4448 48.1575L58.5576 52.5896L72.3633 42.5061C73.6995 41.5308 75.5737 41.8218 76.5493 43.1582C77.5251 44.4941 77.2329 46.3682 75.897 47.3442Z" fill="#86BF88"/>
</g>
<defs>
<clipPath id="clip0_350_1037">
<rect width="125" height="125" fill="white"/>
</clipPath>
</defs>
</svg>
