<svg width="38" height="43" viewBox="0 0 38 43" fill="none" xmlns="http://www.w3.org/2000/svg">
<path d="M36.9526 33.6738V8.78493C36.9526 6.82937 35.3526 5.22937 33.3971 5.22937H8.50819C6.55264 5.22937 4.95264 6.82937 4.95264 8.78493V33.6738C4.95264 35.6294 6.55264 37.2294 8.50819 37.2294H33.3971C35.3526 37.2294 36.9526 35.6294 36.9526 33.6738ZM15.4415 24.7494L19.1749 29.2471L24.686 22.1538C25.0415 21.6916 25.7526 21.6916 26.1082 22.1716L32.3482 30.4916C32.4472 30.6237 32.5076 30.7807 32.5224 30.9451C32.5372 31.1095 32.506 31.2748 32.4321 31.4224C32.3583 31.5701 32.2448 31.6943 32.1044 31.7811C31.964 31.8678 31.8022 31.9138 31.6371 31.9138H10.3215C9.57486 31.9138 9.16597 31.0605 9.62819 30.4738L14.0549 24.7849C14.3926 24.3227 15.0682 24.3049 15.4415 24.7494Z" fill="#2A5F4F"/>
</svg>
