<svg width="125" height="121" viewBox="0 0 125 121" fill="none" xmlns="http://www.w3.org/2000/svg">
<g clip-path="url(#clip0_350_1087)">
<path d="M121.275 59.5341C121.275 54.3261 120.417 49.2339 118.749 44.3932C117.611 41.0921 116.094 37.9092 114.219 34.8863C120.695 31.8265 125 25.5372 125 18.4297C125 8.26772 116.196 0 105.376 0C96.4595 0 88.9151 5.61203 86.5332 13.2735C80.9274 11.3913 75.0515 10.4405 68.9999 10.4405C62.8434 10.4405 56.9333 11.4456 51.4429 13.2908C49.0373 5.66847 41.5116 0.0911604 32.6241 0.0911604C21.8035 0.0911604 13 8.35888 13 18.5209C13 25.6184 17.2941 31.9005 23.7552 34.9676C19.2853 42.198 16.725 50.5914 16.725 59.5341C16.725 78.0866 27.7365 94.2667 43.9445 102.613L32.0796 116.239L38.1713 120.917L51.373 105.757C51.3735 105.757 51.374 105.758 51.3748 105.758C56.8835 107.618 62.8172 108.63 69.0001 108.63C75.183 108.63 81.1168 107.618 86.6255 105.758C86.626 105.757 86.6265 105.757 86.6273 105.757L99.829 120.917L105.921 116.239L94.056 102.613C110.264 94.2667 121.275 78.0866 121.275 59.5341ZM73.2055 18.0134C78.3362 18.4619 83.2859 19.7379 87.9683 21.8197C94.7073 24.8129 100.588 29.4025 104.977 35.0908C109.685 41.1903 112.498 48.2432 113.217 55.6829H106.202C105.481 49.4677 103.033 43.7426 99.3188 38.9316C95.6385 34.1622 90.7122 30.2945 84.9882 27.7496C81.3448 26.1311 77.3786 25.0474 73.2052 24.6086V18.0134H73.2055ZM32.4246 35.9087L32.9859 35.182C37.3746 29.4937 43.2583 24.904 49.9947 21.9108L52.2245 20.9206C52.2323 20.9182 52.2403 20.9156 52.2481 20.9107C56.3428 19.3413 60.7421 18.3263 65.3352 17.9716C65.3354 17.9716 65.3357 17.9716 65.3357 17.9716V24.5566C65.3354 24.5566 65.3354 24.5566 65.3352 24.5566C47.739 26.1604 33.7102 39.2119 31.7977 55.6829H24.7832C25.4969 48.3884 28.2198 41.6338 32.4246 35.9087ZM65.3357 101.099C65.3354 101.099 65.3354 101.099 65.3352 101.099C43.8015 99.4387 26.5696 83.2877 24.7518 63.0742C24.7518 63.074 24.7518 63.0737 24.7518 63.0735H31.7635C31.7635 63.0737 31.7635 63.074 31.7635 63.0742C33.5316 79.6933 47.6286 92.9004 65.3352 94.5139C65.3354 94.5139 65.3357 94.5139 65.3357 94.5139V101.099ZM72.9346 61.1651L61.1406 79.0578L54.449 75.1678L65.0651 59.0636V31.4128H72.9346V61.1651ZM73.2055 101.052V94.4622C90.6598 92.6291 104.486 79.523 106.236 63.0742C106.236 63.074 106.236 63.0737 106.236 63.0735H113.248C113.248 63.0737 113.248 63.074 113.248 63.0742C111.446 83.1175 94.4872 99.1674 73.2055 101.052Z" fill="#86BF88"/>
</g>
<defs>
<clipPath id="clip0_350_1087">
<rect width="125" height="120.917" fill="white"/>
</clipPath>
</defs>
</svg>
