<svg width="57" height="57" viewBox="0 0 57 57" fill="none" xmlns="http://www.w3.org/2000/svg">
<circle cx="28.5" cy="28.5" r="28.5" fill="#86BF88"/>
<g clip-path="url(#clip0_457_743)">
<path fill-rule="evenodd" clip-rule="evenodd" d="M27.9957 13C19.7264 13 13 19.7283 13 27.9999C13 31.2803 14.0579 34.3225 15.8563 36.7918L13.9872 42.3649L19.7528 40.5222C22.1241 42.0919 24.954 43 28.0043 43C36.2736 43 43 36.2715 43 28.0001C43 19.7286 36.2736 13.0002 28.0043 13.0002L27.9957 13ZM23.808 20.6193C23.5172 19.9227 23.2967 19.8963 22.8561 19.8784C22.7061 19.8697 22.5389 19.861 22.3535 19.861C21.7803 19.861 21.1809 20.0285 20.8194 20.3988C20.3788 20.8485 19.2855 21.8977 19.2855 24.0495C19.2855 26.2013 20.8547 28.2823 21.0662 28.5735C21.2867 28.8642 24.1255 33.3439 28.5333 35.1697C31.9802 36.5982 33.0031 36.4658 33.7875 36.2983C34.9335 36.0514 36.3706 35.2045 36.7321 34.1819C37.0937 33.1588 37.0936 32.2857 36.9877 32.1006C36.8819 31.9154 36.5908 31.8099 36.1502 31.5891C35.7095 31.3686 33.5671 30.3104 33.1616 30.1693C32.7647 30.0195 32.3858 30.0725 32.0862 30.4958C31.663 31.0866 31.2488 31.6864 30.9136 32.0478C30.6491 32.33 30.217 32.3654 29.8557 32.2153C29.3708 32.0127 28.0133 31.5361 26.3381 30.0459C25.0421 28.8908 24.1606 27.4536 23.9051 27.0215C23.6493 26.5808 23.8787 26.3247 24.0812 26.0868C24.3016 25.8133 24.5131 25.6194 24.7336 25.3635C24.954 25.108 25.0774 24.9756 25.2185 24.6757C25.3685 24.3847 25.2625 24.0848 25.1568 23.8643C25.0511 23.6438 24.1695 21.4921 23.808 20.6193Z" fill="#F7F8F3"/>
</g>
<defs>
<clipPath id="clip0_457_743">
<rect width="30" height="30" fill="white" transform="translate(13 13)"/>
</clipPath>
</defs>
</svg>
