<svg width="46" height="46" viewBox="0 0 46 46" fill="none" xmlns="http://www.w3.org/2000/svg">
<circle cx="23" cy="23" r="18" fill="white"/>
<path d="M23.7557 32.2386C22.5852 32.2386 21.5398 32.0369 20.6193 31.6335C19.7045 31.2301 18.9801 30.6705 18.446 29.9545C17.9176 29.233 17.6335 28.3977 17.5938 27.4489H20.2699C20.304 27.9659 20.4773 28.4148 20.7898 28.7955C21.108 29.1705 21.5227 29.4602 22.0341 29.6648C22.5455 29.8693 23.1136 29.9716 23.7386 29.9716C24.4261 29.9716 25.0341 29.8523 25.5625 29.6136C26.0966 29.375 26.5142 29.0426 26.8153 28.6165C27.1165 28.1847 27.267 27.6875 27.267 27.125C27.267 26.5398 27.1165 26.0256 26.8153 25.5824C26.5199 25.1335 26.0852 24.7812 25.5114 24.5256C24.9432 24.2699 24.2557 24.142 23.4489 24.142H21.9744V21.9943H23.4489C24.0966 21.9943 24.6648 21.8778 25.1534 21.6449C25.6477 21.4119 26.0341 21.0881 26.3125 20.6733C26.5909 20.2528 26.7301 19.7614 26.7301 19.1989C26.7301 18.6591 26.608 18.1903 26.3636 17.7926C26.125 17.3892 25.7841 17.0739 25.3409 16.8466C24.9034 16.6193 24.3864 16.5057 23.7898 16.5057C23.2216 16.5057 22.6903 16.6108 22.196 16.821C21.7074 17.0256 21.3097 17.321 21.0028 17.7074C20.696 18.0881 20.5313 18.5455 20.5085 19.0795H17.9602C17.9886 18.1364 18.267 17.3068 18.7955 16.5909C19.3295 15.875 20.0341 15.3153 20.9091 14.9119C21.7841 14.5085 22.7557 14.3068 23.8239 14.3068C24.9432 14.3068 25.9091 14.5256 26.7216 14.9631C27.5398 15.3949 28.1705 15.9716 28.6136 16.6932C29.0625 17.4148 29.2841 18.2045 29.2784 19.0625C29.2841 20.0398 29.0114 20.8693 28.4602 21.5511C27.9148 22.233 27.1875 22.6903 26.2784 22.9233V23.0597C27.4375 23.2358 28.3352 23.696 28.9716 24.4403C29.6136 25.1847 29.9318 26.108 29.9261 27.2102C29.9318 28.1705 29.6648 29.0312 29.125 29.7926C28.5909 30.554 27.8608 31.1534 26.9347 31.5909C26.0085 32.0227 24.9489 32.2386 23.7557 32.2386Z" fill="#75ADFA"/>
<path fill-rule="evenodd" clip-rule="evenodd" d="M0 23C0 35.7025 10.2975 46 23 46C35.7025 46 46 35.7025 46 23C46 10.2975 35.7025 0 23 0C22.6649 0 22.3316 0.00716446 22 0.0213485V3.02457C22.3313 3.00825 22.6647 3 23 3C34.0457 3 43 11.9543 43 23C43 34.0457 34.0457 43 23 43C11.9543 43 3 34.0457 3 23H0Z" fill="#04FFB3"/>
</svg>
