<svg width="125" height="125" viewBox="0 0 125 125" fill="none" xmlns="http://www.w3.org/2000/svg">
<path d="M62.3376 103.027H33.2031V106.689C33.2031 108.714 31.5652 110.352 29.541 110.352C27.5168 110.352 25.8789 108.714 25.8789 106.689V103.027H3.93408C3.93188 103.286 3.90625 103.541 3.90625 103.8V114.014C3.90625 120.072 8.83447 125 14.8926 125H51.5137C57.5718 125 62.5 120.072 62.5 114.014V105.241C62.5 104.495 62.3726 103.769 62.3376 103.027Z" fill="#75ADFA"/>
<path d="M9.08789 73.2422C6.59375 80.3201 4.98145 88.1738 4.30859 95.7031H25.8789V73.2422H9.08789Z" fill="#75ADFA"/>
<path d="M48.0144 58.5938H15.7437C14.3865 60.9871 13.1304 63.4268 12.0007 65.918H49.1047C48.5149 63.5237 48.1523 61.0793 48.0144 58.5938Z" fill="#75ADFA"/>
<path d="M66.1621 7.32422H29.541C15.4075 7.32422 3.90625 18.8254 3.90625 32.959C3.90625 34.9832 5.54419 36.6211 7.56836 36.6211C13.6265 36.6211 18.5547 41.5493 18.5547 47.6074V51.2695H47.8516V42.9226L62.314 38.1018C66.8059 36.6033 69.8242 32.4153 69.8242 27.6804V10.9863C69.8242 8.96216 68.1863 7.32422 66.1621 7.32422Z" fill="#75ADFA"/>
<path d="M54.5605 78.5352C53.4304 76.8391 52.4492 75.0671 51.5977 73.2422H33.2031V95.7031H61.4102C60.1912 89.7893 57.9578 83.6304 54.5605 78.5352Z" fill="#75ADFA"/>
<path d="M88.1348 7.32422H77.1484V21.9727H88.1348C90.1572 21.9727 91.7969 20.333 91.7969 18.3105V10.9863C91.7969 8.96387 90.1572 7.32422 88.1348 7.32422Z" fill="#75ADFA"/>
<path d="M68.7512 52.3423C66.72 50.311 65.1482 47.8745 64.0811 45.2336L64.0762 45.2354L55.1758 48.3428V55.3845L55.3296 58.1934C55.3306 58.2105 55.3362 58.2273 55.3372 58.2444C56.4705 58.4668 57.6389 58.5938 58.8379 58.5938H66.1621C67.6426 58.5938 68.9802 57.7034 69.5452 56.3335C70.1138 54.9639 69.7991 53.3901 68.7512 52.3423Z" fill="#75ADFA"/>
</svg>
