<svg width="125" height="125" viewBox="0 0 125 125" fill="none" xmlns="http://www.w3.org/2000/svg">
<g clip-path="url(#clip0_350_984)">
<path d="M11.7546 78.3236C11.7546 78.3236 12.8889 73.6388 8.98491 69.5989C5.06931 65.559 0.174815 65.5551 0.174815 65.5551C0.174815 65.5551 -1.01773 71.0673 2.80075 75.0062C6.61147 78.9412 11.7546 78.3236 11.7546 78.3236Z" fill="#75ADFA"/>
<path d="M20.3472 77.4301C20.3472 77.4301 24.8843 74.9363 25.6923 69.5174C26.4964 64.0946 22.3244 60.3149 22.3244 60.3149C22.3244 60.3149 18.3466 63.1662 17.5231 68.7288C16.6918 74.2914 20.3472 77.4301 20.3472 77.4301Z" fill="#75ADFA"/>
<path d="M27.2616 91.0493C27.2616 91.0493 31.4375 87.9805 31.5346 82.5033C31.62 77.0223 26.9897 73.8214 26.9897 73.8214C26.9897 73.8214 23.4237 77.166 23.3305 82.7947C23.2295 88.4078 27.2616 91.0493 27.2616 91.0493Z" fill="#75ADFA"/>
<path d="M37.5439 98.8805C37.5439 98.8805 41.409 95.4349 40.9895 89.9733C40.5622 84.5116 35.656 81.7497 35.656 81.7497C35.656 81.7497 32.4125 85.4167 32.8475 91.0298C33.2748 96.6274 37.5439 98.8805 37.5439 98.8805Z" fill="#75ADFA"/>
<path d="M50.4405 105.632C50.4405 105.632 53.1558 101.215 51.1786 96.1069C49.2014 90.9988 43.7009 89.7674 43.7009 89.7674C43.7009 89.7674 41.6538 94.2151 43.6815 99.4592C45.7209 104.703 50.4405 105.632 50.4405 105.632Z" fill="#75ADFA"/>
<path d="M13.5997 66.3282C13.5997 66.3282 17.1385 63.0652 16.1285 57.5336C15.1185 52.0021 11.0437 49.2829 11.0437 49.2829C11.0437 49.2829 6.99599 53.2063 7.98654 58.5941C8.9771 63.9858 13.5997 66.3282 13.5997 66.3282Z" fill="#75ADFA"/>
<path d="M16.5092 88.9089C16.5092 88.9089 16.214 84.1037 11.2884 81.3923C6.35508 78.6887 1.68201 80.1221 1.68201 80.1221C1.68201 80.1221 2.16757 85.7352 6.96496 88.3767C11.7701 91.0182 16.5092 88.9089 16.5092 88.9089Z" fill="#75ADFA"/>
<path d="M24.8415 98.224C24.8415 98.224 23.4819 93.6014 18.0785 92.0553C12.6713 90.5132 8.43713 92.9527 8.43713 92.9527C8.43713 92.9527 10.158 98.3172 15.4293 99.8244C20.7006 101.328 24.8415 98.224 24.8415 98.224Z" fill="#75ADFA"/>
<path d="M34.1333 104.839C34.1333 104.839 31.4414 100.842 25.8204 101.013C20.1995 101.168 16.8977 104.781 16.8977 104.781C16.8977 104.781 20.1646 109.373 25.634 109.217C31.1189 109.054 34.1333 104.839 34.1333 104.839Z" fill="#75ADFA"/>
<path d="M38.111 107.535C32.5484 108.37 29.6971 112.352 29.6971 112.352C29.6971 112.352 33.4962 116.516 38.9073 115.704C44.3301 114.892 46.8162 110.344 46.8162 110.344C46.8162 110.344 43.662 106.7 38.111 107.535Z" fill="#75ADFA"/>
<path d="M15.4409 69.0668L12.7645 68.9813C12.749 69.2687 12.2285 98.3405 56.1546 111.225L56.9043 108.654C15.0836 96.3749 15.4021 70.1777 15.4409 69.0668Z" fill="#75ADFA"/>
<path d="M113.245 78.3236C113.245 78.3236 118.392 78.9412 122.199 75.0062C126.014 71.0673 124.825 65.5551 124.825 65.5551C124.825 65.5551 119.931 65.559 116.015 69.5989C112.111 73.6388 113.245 78.3236 113.245 78.3236Z" fill="#75ADFA"/>
<path d="M99.3078 69.5174C100.116 74.9402 104.653 77.4301 104.653 77.4301C104.653 77.4301 108.304 74.2837 107.481 68.7288C106.657 63.1662 102.683 60.3149 102.683 60.3149C102.683 60.3149 98.5037 64.0946 99.3078 69.5174Z" fill="#75ADFA"/>
<path d="M93.4771 82.5033C93.5664 87.9805 97.7501 91.0493 97.7501 91.0493C97.7501 91.0493 101.778 88.4078 101.685 82.7908C101.596 77.166 98.0298 73.8175 98.0298 73.8175C98.0298 73.8175 93.3878 77.0223 93.4771 82.5033Z" fill="#75ADFA"/>
<path d="M84.0183 89.9694C83.6027 95.431 87.4678 98.8766 87.4678 98.8766C87.4678 98.8766 91.733 96.6274 92.1642 91.0221C92.5954 85.4206 89.3518 81.7497 89.3518 81.7497C89.3518 81.7497 84.4417 84.5077 84.0183 89.9694Z" fill="#75ADFA"/>
<path d="M73.8214 96.103C71.8442 101.207 74.5595 105.628 74.5595 105.628C74.5595 105.628 79.2869 104.699 81.3146 99.4554C83.3385 94.2113 81.2913 89.7635 81.2913 89.7635C81.2913 89.7635 75.8025 90.9949 73.8214 96.103Z" fill="#75ADFA"/>
<path d="M117.013 58.6019C118.004 53.2063 113.956 49.2868 113.956 49.2868C113.956 49.2868 109.881 52.0098 108.871 57.5375C107.861 63.0652 111.396 66.3321 111.396 66.3321C111.396 66.3321 116.031 63.9858 117.013 58.6019Z" fill="#75ADFA"/>
<path d="M113.715 81.3962C108.786 84.1037 108.495 88.9128 108.495 88.9128C108.495 88.9128 113.23 91.0221 118.031 88.3806C122.829 85.743 123.314 80.126 123.314 80.126C123.314 80.126 118.649 78.6887 113.715 81.3962Z" fill="#75ADFA"/>
<path d="M106.929 92.0554C101.518 93.5975 100.166 98.224 100.166 98.224C100.166 98.224 104.311 101.332 109.582 99.8244C114.854 98.3172 116.574 92.9527 116.574 92.9527C116.574 92.9527 112.336 90.5093 106.929 92.0554Z" fill="#75ADFA"/>
<path d="M99.1835 101.009C93.5665 100.842 90.8706 104.835 90.8706 104.835C90.8706 104.835 93.8772 109.05 99.3699 109.209C104.839 109.369 108.106 104.769 108.106 104.769C108.106 104.769 104.804 101.168 99.1835 101.009Z" fill="#75ADFA"/>
<path d="M86.8967 107.535C81.338 106.7 78.1915 110.348 78.1915 110.348C78.1915 110.348 80.6815 114.892 86.1004 115.708C91.5193 116.52 95.3106 112.356 95.3106 112.356C95.3106 112.356 92.4594 108.374 86.8967 107.535Z" fill="#75ADFA"/>
<path d="M112.247 68.9774L109.571 69.0629C109.606 70.1738 109.924 96.3711 68.1112 108.646L68.8609 111.218C112.779 98.3366 112.259 69.2688 112.247 68.9774Z" fill="#75ADFA"/>
<path d="M79.6521 78.6654H75.9774C75.9774 75.2237 75.9774 70.6749 75.9774 69.6222C69.2805 67.7693 68.255 56.1002 68.1307 54.3833H70.3876V45.6159C71.9181 44.9905 74.3032 43.4522 76.6261 40.7331L80.6738 45.2391L85.1254 41.238L81.6371 37.3419C85.4828 38.6238 91.7874 39.8124 96.7091 36.3513C102.178 32.4901 104.078 24.2161 102.334 11.7623L101.976 9.18298L62.502 9.21794L23.0353 9.18687L22.674 11.7662C20.9299 24.22 22.8294 32.494 28.3027 36.3552C33.2205 39.8163 39.5251 38.6277 43.3746 37.3458L39.8824 41.2419L44.3341 45.243L48.3818 40.7369C50.7086 43.4561 53.0976 44.9944 54.6203 45.6198V54.3833H56.8772C56.7568 56.0963 55.7274 67.7732 49.0305 69.6222C49.0305 70.6749 49.0305 75.2198 49.0305 78.6654H45.3518V83.0316H62.4554H62.5447H79.6444L79.6521 78.6654ZM83.3191 15.1651L96.7091 15.1768C97.5676 23.6295 96.3867 29.2388 93.2557 31.4529C89.9772 33.7759 84.5544 32.2104 81.8353 31.0412C83.1249 26.8576 83.7814 21.6057 83.3191 15.1651ZM31.7405 31.4491C28.6134 29.2349 27.4364 23.6256 28.291 15.1729L41.681 15.1613C41.2187 21.6018 41.8752 26.8537 43.1649 31.0334C40.4496 32.2065 35.0229 33.772 31.7405 31.4491Z" fill="#75ADFA"/>
</g>
<defs>
<clipPath id="clip0_350_984">
<rect width="125" height="125" fill="white"/>
</clipPath>
</defs>
</svg>
