<svg width="125" height="125" viewBox="0 0 125 125" fill="none" xmlns="http://www.w3.org/2000/svg">
<g clip-path="url(#clip0_350_1032)">
<path d="M39.5484 98.1653C46.6902 98.1653 52.4798 92.3757 52.4798 85.2339C52.4798 78.092 46.6902 72.3024 39.5484 72.3024C32.4066 72.3024 26.6169 78.092 26.6169 85.2339C26.6169 92.3757 32.4066 98.1653 39.5484 98.1653Z" fill="#86BF88"/>
<path d="M78.4838 77.1694H69.9052C69.0524 77.1694 68.2782 76.6673 67.9334 75.8851C67.7237 75.4032 66.6774 72.5403 66.51 72.2762C65.9798 71.4254 66.1068 70.3206 66.8145 69.6109L72.9314 63.494C73.0705 63.3548 73.1673 63.0303 72.9899 62.8669L62.1088 51.9133C61.9697 51.7742 61.6491 51.6855 61.4879 51.8609L55.3165 58.0343C54.6068 58.744 53.504 58.869 52.6491 58.3387C52.3306 58.1391 50.01 57.1895 49.3911 57.0343C48.4314 56.7944 47.758 55.9335 47.758 54.9436V46.3649C47.758 46.2057 47.7056 45.8347 47.2278 45.8347H31.8608C31.7016 45.8347 31.3306 45.8871 31.3306 46.3649V54.9436C31.3306 55.7944 30.8306 56.5665 30.0504 56.9133C29.5665 57.129 26.7016 58.1754 26.4395 58.3387C25.5866 58.871 24.4818 58.744 23.7721 58.0343L17.6552 51.9173C17.512 51.7762 17.1995 51.6754 17.0282 51.8609L6.08261 62.8085C5.9435 62.9476 5.85076 63.2742 6.02616 63.4375L12.2016 69.6089C12.9133 70.3186 13.0362 71.4274 12.502 72.2782C12.3024 72.5968 11.3548 74.9153 11.1995 75.5343C10.9596 76.494 10.0987 77.1653 9.10882 77.1653H0.534224C0.376966 77.1653 0.00599859 77.2177 0.00599859 77.6956V93.1371C-0.0262595 93.4496 0.100757 93.625 0.387047 93.6673H8.96366C9.81447 93.6673 10.5866 94.1673 10.9334 94.9456C11.1512 95.4335 12.0947 98.1371 12.3568 98.5544C12.887 99.3972 12.7701 100.492 12.0745 101.206L6.10479 107.323C5.96164 107.466 5.84068 107.792 6.02818 107.968L16.9758 118.913C17.1209 119.056 17.4314 119.151 17.6028 118.97L23.7741 112.796C24.1915 112.381 24.7419 112.165 25.2983 112.165C25.6915 112.165 29.0786 113.641 29.6995 113.796C30.6592 114.034 31.3326 114.897 31.3326 115.887V124.466C31.3326 124.625 31.385 124.996 31.8629 124.996H47.3044C47.4616 124.996 47.8326 124.944 47.8326 124.466V115.887C47.8326 115.034 48.3346 114.262 49.1149 113.917C49.5987 113.702 52.2923 112.764 52.7237 112.494C53.5725 111.962 54.6814 112.089 55.3911 112.796L61.51 118.913C61.6552 119.056 61.9657 119.151 62.137 118.97L73.0806 108.022C73.2197 107.883 73.3125 107.558 73.1371 107.395L66.9637 101.222C66.254 100.512 66.129 99.4073 66.6592 98.5565C66.8629 98.2339 67.8064 95.9214 67.9637 95.2944C68.2036 94.3367 69.0645 93.6633 70.0544 93.6633H78.633C78.7923 93.6633 79.1633 93.6109 79.1633 93.1331V77.8891C79.0725 77.5182 78.8266 77.1694 78.4838 77.1694ZM39.5483 102.476C30.0423 102.476 22.3064 94.7419 22.3064 85.2339C22.3064 75.7258 30.0403 67.9919 39.5483 67.9919C49.0564 67.9919 56.7903 75.7258 56.7903 85.2339C56.7903 94.7419 49.0544 102.476 39.5483 102.476Z" fill="#86BF88"/>
<path d="M99.3447 34.1533C104.106 34.1533 107.966 30.2935 107.966 25.5323C107.966 20.7711 104.106 16.9113 99.3447 16.9113C94.5835 16.9113 90.7238 20.7711 90.7238 25.5323C90.7238 30.2935 94.5835 34.1533 99.3447 34.1533Z" fill="#86BF88"/>
<path d="M119.552 20.877C118.702 20.877 117.931 20.377 117.585 19.6008C117.427 19.248 116.77 17.4214 116.679 17.2782C116.149 16.4274 116.276 15.3226 116.984 14.6129L120.778 10.8145L114.131 4.12097L110.337 7.91734C109.625 8.62702 108.518 8.75 107.667 8.21976C107.488 8.10686 106.214 7.56653 105.708 7.44153C104.746 7.20363 104.073 6.34073 104.073 5.35081V0H94.5645V5.35081C94.5645 6.20161 94.0645 6.97177 93.2862 7.32056C92.9354 7.47581 91.1088 8.13306 90.9697 8.22177C90.1209 8.75202 89.012 8.62903 88.3024 7.91935L84.508 4.12298L77.8124 10.8206L81.6068 14.6149C82.3165 15.3246 82.4415 16.4294 81.9112 17.2802C81.7983 17.4617 81.258 18.7339 81.127 19.254C80.885 20.2097 80.0241 20.879 79.0382 20.879H73.6895V30.4375H78.9415C79.7923 30.4375 80.5624 30.9375 80.9092 31.7137C81.0665 32.0665 81.6391 33.7581 81.8145 34.0363C82.3407 34.879 82.2237 35.9718 81.5282 36.6835L77.8104 40.496L84.51 47.1936L88.3024 43.3972C89.012 42.6895 90.1209 42.5625 90.9677 43.0927C91.1471 43.2036 92.4233 43.746 92.9334 43.873C93.8931 44.1129 94.5665 44.9738 94.5665 45.9637V51.3145H104.125V45.9637C104.125 45.1129 104.625 44.3427 105.403 43.9939C105.754 43.8387 107.446 43.2641 107.724 43.0907C108.575 42.5605 109.681 42.6875 110.389 43.3952L114.183 47.1915L120.879 40.4939L117.085 36.6996C116.375 35.9899 116.25 34.8851 116.78 34.0343C116.893 33.8528 117.437 32.5766 117.56 32.0726C117.8 31.1109 118.663 30.4375 119.653 30.4375H125V20.879H119.552V20.877ZM99.3447 38.4637C92.2137 38.4637 86.4132 32.6633 86.4132 25.5323C86.4132 18.4012 92.2137 12.6008 99.3447 12.6008C106.476 12.6008 112.276 18.4012 112.276 25.5323C112.276 32.6633 106.476 38.4637 99.3447 38.4637Z" fill="#86BF88"/>
</g>
<defs>
<clipPath id="clip0_350_1032">
<rect width="125" height="125" fill="white"/>
</clipPath>
</defs>
</svg>
