<svg width="125" height="125" viewBox="0 0 125 125" fill="none" xmlns="http://www.w3.org/2000/svg">
<g clip-path="url(#clip0_350_1026)">
<path d="M120.969 85.7344L92.1162 74.1046C91.1111 73.6995 90.0206 73.555 88.9446 73.6837L67.8171 76.2149L60.7369 62.6686C59.2212 63.0503 57.5997 62.9382 56.1385 62.3096L36.4746 53.8142L56.9397 56.7802C58.6806 57.0327 60.4809 56.4158 61.7036 55.0511L75.9989 39.092C77.9748 36.886 77.7884 33.4955 75.5824 31.5194C73.3767 29.543 69.9863 29.7294 68.0096 31.9357L55.6325 45.7534L38.0127 43.1996L49.8175 41.7769L48.9727 40.1606C46.927 36.2467 42.0961 34.7324 38.1825 36.778L26.1245 43.0802C24.1486 44.1129 22.6934 45.9238 22.1105 48.0758C21.5274 50.2278 21.8696 52.5256 23.054 54.4145L44.0832 87.951C45.6744 90.4884 48.4883 91.4922 51.5224 91.1293L88.8356 86.6593L116.157 97.6717C119.453 99.0004 123.202 97.4056 124.531 94.1089C125.86 90.8123 124.265 87.0631 120.969 85.7344Z" fill="#75ADFA"/>
<path d="M30.6828 31.3624C37.2198 31.3624 42.5192 26.063 42.5192 19.526C42.5192 12.9889 37.2198 7.68951 30.6828 7.68951C24.1457 7.68951 18.8463 12.9889 18.8463 19.526C18.8463 26.063 24.1457 31.3624 30.6828 31.3624Z" fill="#75ADFA"/>
<path d="M78.7482 26.89L85.0976 14.0255C85.4362 13.3393 85.4558 12.539 85.1507 11.8373C84.8457 11.1356 84.2473 10.6034 83.5148 10.3829L73.2072 7.27978C72.5294 7.07587 71.7978 7.15683 71.1809 7.50387C70.5639 7.8509 70.1155 8.43483 69.9383 9.12017L65.3696 26.8041C69.2767 23.8209 74.7935 23.7915 78.7482 26.89Z" fill="#75ADFA"/>
<path d="M120.568 109.43L90.2706 94.0839C89.6491 93.769 88.9618 93.6049 88.265 93.6049H41.4814L8.20474 40.3168C6.90657 38.2373 4.16794 37.6038 2.0882 38.9028C0.00872898 40.2015 -0.624271 42.9399 0.674442 45.0193L32.4119 95.843L4.84728 109.408C2.64759 110.49 1.74198 113.151 2.82424 115.35C3.90678 117.55 6.56799 118.456 8.76741 117.373L39.026 102.483H87.2051L116.557 117.35C118.746 118.459 121.416 117.581 122.523 115.396C123.631 113.209 122.756 110.538 120.568 109.43Z" fill="#75ADFA"/>
</g>
<defs>
<clipPath id="clip0_350_1026">
<rect width="125" height="125" fill="white"/>
</clipPath>
</defs>
</svg>
