<svg width="92" height="102" viewBox="0 0 92 102" fill="none" xmlns="http://www.w3.org/2000/svg">
<path d="M4.068 99.12C3.084 99.12 2.264 98.916 1.608 98.508C0.952 98.092 0.58 97.516 0.492 96.78V96.756C0.492 96.692 0.516 96.64 0.564 96.6C0.62 96.552 0.684 96.528 0.756 96.528H2.4C2.488 96.528 2.556 96.544 2.604 96.576C2.652 96.608 2.704 96.664 2.76 96.744C2.96 97.136 3.38 97.332 4.02 97.332C4.476 97.332 4.828 97.2 5.076 96.936C5.324 96.672 5.448 96.3 5.448 95.82V95.64H3.168C3.088 95.64 3.016 95.608 2.952 95.544C2.896 95.48 2.868 95.404 2.868 95.316V94.296C2.868 94.208 2.896 94.132 2.952 94.068C3.016 94.004 3.088 93.972 3.168 93.972H5.448V93.804C5.448 92.788 4.972 92.28 4.02 92.28C3.684 92.28 3.412 92.336 3.204 92.448C2.996 92.56 2.86 92.704 2.796 92.88C2.756 92.96 2.712 93.016 2.664 93.048C2.616 93.072 2.548 93.084 2.46 93.084H0.792C0.72 93.084 0.656 93.06 0.6 93.012C0.544 92.964 0.52 92.904 0.528 92.832C0.624 92.064 0.992 91.48 1.632 91.08C2.28 90.68 3.092 90.48 4.068 90.48C5.18 90.48 6.064 90.764 6.72 91.332C7.384 91.9 7.736 92.748 7.776 93.876C7.792 94.372 7.8 94.68 7.8 94.8C7.8 94.92 7.792 95.228 7.776 95.724C7.736 96.876 7.392 97.732 6.744 98.292C6.096 98.844 5.204 99.12 4.068 99.12ZM15.4238 98.592C15.4558 98.632 15.4718 98.684 15.4718 98.748C15.4718 98.82 15.4478 98.88 15.3997 98.928C15.3518 98.976 15.2878 99 15.2078 99H13.4198C13.2758 99 13.1598 98.936 13.0718 98.808L11.7038 96.66H11.1038V98.7C11.1038 98.78 11.0758 98.852 11.0198 98.916C10.9638 98.972 10.8918 99 10.8038 99H9.32775C9.24775 99 9.17575 98.972 9.11175 98.916C9.05575 98.852 9.02775 98.78 9.02775 98.7V93.06C9.02775 92.972 9.05575 92.9 9.11175 92.844C9.17575 92.788 9.24775 92.76 9.32775 92.76H10.8038C10.8918 92.76 10.9638 92.788 11.0198 92.844C11.0758 92.9 11.1038 92.972 11.1038 93.06V95.016H11.7278L12.9878 92.952C13.0758 92.824 13.1878 92.76 13.3238 92.76H14.9318C15.0118 92.76 15.0758 92.784 15.1237 92.832C15.1798 92.88 15.2078 92.94 15.2078 93.012C15.2078 93.044 15.1878 93.1 15.1478 93.18L13.5278 95.796L15.4238 98.592ZM19.1176 99.12C18.1096 99.12 17.3336 98.888 16.7896 98.424C16.2536 97.952 15.9616 97.284 15.9136 96.42C15.9056 96.316 15.9016 96.136 15.9016 95.88C15.9016 95.624 15.9056 95.444 15.9136 95.34C15.9616 94.492 16.2616 93.832 16.8136 93.36C17.3736 92.88 18.1416 92.64 19.1176 92.64C20.0936 92.64 20.8576 92.88 21.4096 93.36C21.9696 93.832 22.2736 94.492 22.3216 95.34C22.3376 95.548 22.3456 95.728 22.3456 95.88C22.3456 96.032 22.3376 96.212 22.3216 96.42C22.2736 97.284 21.9776 97.952 21.4336 98.424C20.8976 98.888 20.1256 99.12 19.1176 99.12ZM19.1176 97.608C19.4456 97.608 19.6896 97.508 19.8496 97.308C20.0096 97.1 20.1016 96.784 20.1256 96.36C20.1336 96.28 20.1376 96.12 20.1376 95.88C20.1376 95.64 20.1336 95.48 20.1256 95.4C20.1016 94.984 20.0096 94.672 19.8496 94.464C19.6896 94.256 19.4456 94.152 19.1176 94.152C18.7896 94.152 18.5456 94.256 18.3856 94.464C18.2256 94.672 18.1336 94.984 18.1096 95.4L18.0976 95.88L18.1096 96.36C18.1336 96.784 18.2256 97.1 18.3856 97.308C18.5456 97.508 18.7896 97.608 19.1176 97.608ZM23.9207 99C23.8327 99 23.7607 98.972 23.7047 98.916C23.6487 98.86 23.6207 98.788 23.6207 98.7V90.912C23.6207 90.824 23.6487 90.752 23.7047 90.696C23.7607 90.632 23.8327 90.6 23.9207 90.6H30.6527C30.7407 90.6 30.8127 90.632 30.8687 90.696C30.9327 90.752 30.9647 90.824 30.9647 90.912V98.7C30.9647 98.788 30.9327 98.86 30.8687 98.916C30.8127 98.972 30.7407 99 30.6527 99H29.0207C28.9327 99 28.8567 98.972 28.7927 98.916C28.7367 98.86 28.7087 98.788 28.7087 98.7V92.604H25.8767V98.7C25.8767 98.788 25.8447 98.86 25.7807 98.916C25.7247 98.972 25.6527 99 25.5647 99H23.9207ZM32.7773 101.28C32.6893 101.28 32.6133 101.252 32.5493 101.196C32.4933 101.14 32.4653 101.068 32.4653 100.98V93.06C32.4653 92.972 32.4933 92.9 32.5493 92.844C32.6133 92.788 32.6893 92.76 32.7773 92.76H34.2053C34.2933 92.76 34.3653 92.788 34.4213 92.844C34.4773 92.9 34.5053 92.972 34.5053 93.06V93.492C34.9373 92.924 35.5573 92.64 36.3653 92.64C37.1413 92.64 37.7493 92.884 38.1893 93.372C38.6373 93.852 38.8773 94.54 38.9093 95.436C38.9173 95.54 38.9213 95.688 38.9213 95.88C38.9213 96.072 38.9173 96.224 38.9093 96.336C38.8773 97.2 38.6373 97.88 38.1893 98.376C37.7413 98.872 37.1333 99.12 36.3653 99.12C35.5893 99.12 35.0093 98.856 34.6253 98.328V100.98C34.6253 101.068 34.5973 101.14 34.5413 101.196C34.4853 101.252 34.4133 101.28 34.3253 101.28H32.7773ZM35.6693 97.452C36.0293 97.452 36.2853 97.348 36.4373 97.14C36.5973 96.924 36.6893 96.628 36.7133 96.252C36.7213 96.172 36.7253 96.048 36.7253 95.88C36.7253 95.712 36.7213 95.588 36.7133 95.508C36.6893 95.132 36.5973 94.84 36.4373 94.632C36.2853 94.416 36.0293 94.308 35.6693 94.308C35.3253 94.308 35.0693 94.42 34.9013 94.644C34.7333 94.86 34.6413 95.136 34.6253 95.472C34.6173 95.576 34.6133 95.728 34.6133 95.928C34.6133 96.12 34.6173 96.268 34.6253 96.372C34.6413 96.684 34.7333 96.944 34.9013 97.152C35.0773 97.352 35.3333 97.452 35.6693 97.452ZM43.0707 99.12C42.0627 99.12 41.2867 98.888 40.7427 98.424C40.2067 97.952 39.9147 97.284 39.8667 96.42C39.8587 96.316 39.8547 96.136 39.8547 95.88C39.8547 95.624 39.8587 95.444 39.8667 95.34C39.9147 94.492 40.2147 93.832 40.7667 93.36C41.3267 92.88 42.0947 92.64 43.0707 92.64C44.0467 92.64 44.8107 92.88 45.3627 93.36C45.9227 93.832 46.2267 94.492 46.2747 95.34C46.2907 95.548 46.2987 95.728 46.2987 95.88C46.2987 96.032 46.2907 96.212 46.2747 96.42C46.2267 97.284 45.9307 97.952 45.3867 98.424C44.8507 98.888 44.0787 99.12 43.0707 99.12ZM43.0707 97.608C43.3987 97.608 43.6427 97.508 43.8027 97.308C43.9627 97.1 44.0547 96.784 44.0787 96.36C44.0867 96.28 44.0907 96.12 44.0907 95.88C44.0907 95.64 44.0867 95.48 44.0787 95.4C44.0547 94.984 43.9627 94.672 43.8027 94.464C43.6427 94.256 43.3987 94.152 43.0707 94.152C42.7427 94.152 42.4987 94.256 42.3387 94.464C42.1787 94.672 42.0867 94.984 42.0627 95.4L42.0507 95.88L42.0627 96.36C42.0867 96.784 42.1787 97.1 42.3387 97.308C42.4987 97.508 42.7427 97.608 43.0707 97.608ZM50.8978 101.28C50.8178 101.28 50.7458 101.252 50.6818 101.196C50.6258 101.14 50.5978 101.068 50.5978 100.98V99C49.5258 99 48.7098 98.776 48.1498 98.328C47.5898 97.872 47.2858 97.224 47.2378 96.384C47.2298 96.272 47.2258 96.104 47.2258 95.88C47.2258 95.648 47.2298 95.48 47.2378 95.376C47.2858 94.552 47.5978 93.912 48.1738 93.456C48.7498 92.992 49.5578 92.76 50.5978 92.76V90.78C50.5978 90.692 50.6258 90.62 50.6818 90.564C50.7458 90.508 50.8178 90.48 50.8978 90.48H52.3978C52.4858 90.48 52.5578 90.508 52.6138 90.564C52.6698 90.62 52.6978 90.692 52.6978 90.78V92.76C53.7378 92.76 54.5458 92.992 55.1218 93.456C55.6978 93.912 56.0098 94.552 56.0578 95.376C56.0738 95.584 56.0818 95.752 56.0818 95.88C56.0818 95.992 56.0738 96.16 56.0578 96.384C56.0098 97.224 55.7058 97.872 55.1458 98.328C54.5858 98.776 53.7698 99 52.6978 99V100.98C52.6978 101.068 52.6698 101.14 52.6138 101.196C52.5578 101.252 52.4858 101.28 52.3978 101.28H50.8978ZM50.6098 94.272C50.1698 94.272 49.8498 94.376 49.6498 94.584C49.4498 94.784 49.3418 95.096 49.3258 95.52L49.3138 95.892C49.3138 96.468 49.4098 96.88 49.6018 97.128C49.7938 97.368 50.1298 97.488 50.6098 97.488V94.272ZM52.6858 97.488C53.1738 97.488 53.5098 97.364 53.6938 97.116C53.8858 96.868 53.9818 96.46 53.9818 95.892C53.9818 95.716 53.9778 95.592 53.9698 95.52C53.9538 95.088 53.8418 94.772 53.6338 94.572C53.4338 94.372 53.1178 94.272 52.6858 94.272V97.488ZM64.727 98.592C64.751 98.624 64.763 98.668 64.763 98.724C64.763 98.804 64.735 98.872 64.679 98.928C64.631 98.976 64.571 99 64.499 99H62.603C62.411 99 62.271 98.92 62.183 98.76L60.395 95.76H59.615V98.7C59.615 98.788 59.583 98.86 59.519 98.916C59.463 98.972 59.391 99 59.303 99H57.659C57.571 99 57.499 98.972 57.443 98.916C57.387 98.86 57.359 98.788 57.359 98.7V90.912C57.359 90.824 57.387 90.752 57.443 90.696C57.499 90.632 57.571 90.6 57.659 90.6H59.303C59.391 90.6 59.463 90.632 59.519 90.696C59.583 90.752 59.615 90.824 59.615 90.912V93.756H60.287L62.015 90.84C62.119 90.68 62.271 90.6 62.471 90.6H64.307C64.379 90.6 64.439 90.624 64.487 90.672C64.535 90.72 64.559 90.78 64.559 90.852C64.559 90.908 64.543 90.956 64.511 90.996L62.291 94.644L64.727 98.592ZM65.6393 99C65.5513 99 65.4753 98.972 65.4113 98.916C65.3553 98.852 65.3273 98.776 65.3273 98.688V97.584C65.3273 97.504 65.3553 97.44 65.4113 97.392C65.4673 97.336 65.5393 97.3 65.6273 97.284C65.9473 97.252 66.1633 97.044 66.2753 96.66C66.3873 96.276 66.4433 95.648 66.4433 94.776V93.06C66.4433 92.972 66.4713 92.9 66.5273 92.844C66.5913 92.788 66.6633 92.76 66.7433 92.76H71.5433C71.6313 92.76 71.7033 92.788 71.7593 92.844C71.8153 92.9 71.8433 92.972 71.8433 93.06V98.7C71.8433 98.78 71.8153 98.852 71.7593 98.916C71.7033 98.972 71.6313 99 71.5433 99H70.0433C69.9553 99 69.8793 98.972 69.8153 98.916C69.7593 98.86 69.7313 98.788 69.7313 98.7V94.392H68.4473V95.004C68.4473 96.052 68.3673 96.86 68.2073 97.428C68.0473 97.988 67.7673 98.392 67.3673 98.64C66.9753 98.88 66.3993 99 65.6393 99ZM79.4019 92.76C79.4819 92.76 79.5499 92.788 79.6059 92.844C79.6699 92.9 79.7019 92.968 79.7019 93.048V98.7C79.7019 98.78 79.6739 98.852 79.6179 98.916C79.5619 98.972 79.4899 99 79.4019 99H77.9019C77.8139 99 77.7379 98.972 77.6739 98.916C77.6179 98.86 77.5899 98.788 77.5899 98.7V95.448L75.2499 98.808C75.1619 98.936 75.0499 99 74.9139 99H73.5699C73.4899 99 73.4179 98.972 73.3539 98.916C73.2979 98.852 73.2699 98.78 73.2699 98.7V93.06C73.2699 92.972 73.2979 92.9 73.3539 92.844C73.4179 92.788 73.4899 92.76 73.5699 92.76H75.0699C75.1579 92.76 75.2299 92.788 75.2859 92.844C75.3499 92.9 75.3819 92.972 75.3819 93.06V96.312L77.7219 92.952C77.8099 92.824 77.9219 92.76 78.0579 92.76H79.4019ZM81.2574 99C81.1774 99 81.1054 98.972 81.0414 98.916C80.9854 98.852 80.9574 98.78 80.9574 98.7V93.06C80.9574 92.972 80.9854 92.9 81.0414 92.844C81.1054 92.788 81.1774 92.76 81.2574 92.76H82.7574C82.8454 92.76 82.9174 92.788 82.9734 92.844C83.0374 92.9 83.0694 92.972 83.0694 93.06V95.016H85.1094V93.06C85.1094 92.972 85.1374 92.9 85.1934 92.844C85.2574 92.788 85.3334 92.76 85.4214 92.76H86.9214C87.0094 92.76 87.0814 92.788 87.1374 92.844C87.1934 92.9 87.2214 92.972 87.2214 93.06V98.7C87.2214 98.78 87.1934 98.852 87.1374 98.916C87.0814 98.972 87.0094 99 86.9214 99H85.4214C85.3334 99 85.2574 98.972 85.1934 98.916C85.1374 98.86 85.1094 98.788 85.1094 98.7V96.648H83.0694V98.7C83.0694 98.788 83.0374 98.86 82.9734 98.916C82.9174 98.972 82.8454 99 82.7574 99H81.2574Z" fill="#2A5F4F"/>
<circle cx="45.4841" cy="56.688" r="30.5732" fill="#86BF88"/>
<circle cx="32.4267" cy="42.3568" r="16.879" fill="#86BF88"/>
<circle cx="48.3503" cy="36.6241" r="16.879" fill="#86BF88"/>
<circle cx="59.8153" cy="40.4459" r="16.879" fill="#86BF88"/>
<path d="M21.9171 46.9825C21.9171 44.9896 22.9067 43.1268 24.558 42.011L42.1249 30.1415C44.1544 28.7702 46.8136 28.7702 48.8431 30.1415L66.41 42.011C68.0613 43.1268 69.0509 44.9896 69.0509 46.9826V65.1839C69.0509 68.4976 66.3646 71.1839 63.0509 71.1839H27.9171C24.6034 71.1839 21.9171 68.4976 21.9171 65.1839V46.9825Z" fill="#F7F8F3"/>
<circle cx="46.121" cy="3.82166" r="3.82166" fill="#86BF88"/>
<circle cx="33.0636" cy="6.6878" r="2.2293" fill="#86BF88"/>
<circle cx="25.7388" cy="15.9235" r="1.91083" fill="#86BF88"/>
<circle cx="34.0191" cy="16.5605" r="1.27389" fill="#86BF88"/>
<circle cx="43.2548" cy="13.6944" r="2.2293" fill="#86BF88"/>
<circle cx="56.949" cy="16.5605" r="2.54777" fill="#86BF88"/>
<circle cx="66.1848" cy="18.1529" r="1.59236" fill="#86BF88"/>
<circle cx="62.6815" cy="10.1911" r="1.27389" fill="#86BF88"/>
<circle cx="56.3121" cy="5.09564" r="1.91083" fill="#86BF88"/>
<circle cx="50.898" cy="11.7835" r="0.955414" fill="#86BF88"/>
<g clip-path="url(#clip0_256_29)">
<path d="M45.484 59.4679C46.2741 59.4679 46.9146 58.8263 46.9146 58.0348C46.9146 57.2434 46.2741 56.6018 45.484 56.6018C44.6939 56.6018 44.0533 57.2434 44.0533 58.0348C44.0533 58.8263 44.6939 59.4679 45.484 59.4679Z" fill="#86BF88"/>
<path d="M34.5798 55.9156L36.1769 55.265L34.7079 50.3938C34.2633 48.8885 34.546 47.3036 35.4839 46.0454C36.4018 44.8147 37.7977 44.0982 39.326 44.0681V44.9265C39.326 45.4011 39.71 45.7863 40.1844 45.7863H50.7837C51.2581 45.7863 51.6421 45.4011 51.6421 44.9265V44.0681C53.1704 44.0982 54.5663 44.8146 55.4842 46.0454C56.4221 47.3036 56.7048 48.8885 56.2601 50.3938L54.7912 55.265L56.3883 55.9156L57.9048 50.8868C58.5062 48.8513 58.1245 46.7132 56.8593 45.0165C55.6141 43.3467 53.7169 42.3788 51.6421 42.3485V41.4873C51.6421 41.0126 51.2581 40.6274 50.7837 40.6274H40.1844C39.71 40.6274 39.326 41.0126 39.326 41.4873V42.3485C37.2512 42.3788 35.354 43.3467 34.1088 45.0165C32.8435 46.7132 32.4619 48.8513 33.0633 50.8868L34.5798 55.9156Z" fill="#86BF88"/>
<path d="M31.3499 59.0872C30.927 59.2598 30.7233 59.743 30.8956 60.1666L33.2075 65.8626C33.3797 66.2862 33.8616 66.4897 34.2845 66.3178L35.6945 65.7434L32.76 58.5134L31.3499 59.0872Z" fill="#86BF88"/>
<path d="M34.3502 57.8656L37.2847 65.0955L39.2853 64.2804L36.3508 57.051L34.3502 57.8656Z" fill="#86BF88"/>
<path d="M48.8254 50.5033C47.9711 49.4262 46.7275 48.8875 45.484 48.8875C44.24 48.8875 42.9965 49.4263 42.1415 50.5033L37.7947 56.0434L41.0765 64.1286C42.5187 64.5075 43.9992 64.7039 45.484 64.7036C46.9576 64.7036 48.4323 64.5127 49.8915 64.1286L53.1734 56.0434L48.8254 50.5033ZM45.484 61.1875C43.7484 61.1875 42.3367 59.7734 42.3367 58.0348C42.3367 56.2962 43.7484 54.8821 45.484 54.8821C47.2197 54.8821 48.6314 56.2962 48.6314 58.0348C48.6314 59.7734 47.2197 61.1875 45.484 61.1875Z" fill="#86BF88"/>
<path d="M59.6181 59.0872L58.2081 58.5134L55.2736 65.7434L56.6836 66.3178C57.1065 66.4897 57.5883 66.2862 57.7606 65.8626L60.0725 60.1666C60.2447 59.743 60.041 59.2598 59.6181 59.0872Z" fill="#86BF88"/>
<path d="M54.6171 57.051L51.6826 64.2804L53.6832 65.0955L56.6177 57.8656L54.6171 57.051Z" fill="#86BF88"/>
</g>
<defs>
<clipPath id="clip0_256_29">
<rect width="29.2994" height="29.2994" fill="white" transform="translate(30.8344 38.8535)"/>
</clipPath>
</defs>
</svg>
