<svg width="57" height="57" viewBox="0 0 57 57" fill="none" xmlns="http://www.w3.org/2000/svg">
<circle cx="28.5" cy="28.5" r="28.5" fill="#86BF88"/>
<g clip-path="url(#clip0_457_742)">
<path d="M40.9864 14.3436C41.0446 13.9401 40.9134 13.5311 40.6416 13.2687C40.3696 13.0063 39.9976 12.9297 39.6636 13.0672L11.6637 24.6057C11.2864 24.7612 11.026 25.1614 11.0018 25.6228C10.9777 26.0842 11.1945 26.5177 11.5528 26.7244L19.5528 31.3398C19.8738 31.5249 20.2561 31.4975 20.5547 31.2678L27.1955 26.1595L23.2191 31.8946C23.0441 32.1472 22.9688 32.4729 23.0118 32.7925C23.0548 33.112 23.2121 33.3961 23.4453 33.5755L35.4454 42.8062C35.7276 43.0234 36.0862 43.0605 36.3976 42.905C36.709 42.7494 36.9306 42.4222 36.9864 42.0359L40.9864 14.3436Z" fill="#F7F8F3"/>
</g>
<defs>
<clipPath id="clip0_457_742">
<rect width="30" height="30" fill="white" transform="translate(11 13)"/>
</clipPath>
</defs>
</svg>
